<svg width="1200" height="760" viewBox="0 0 1200 760" fill="none" xmlns="http://www.w3.org/2000/svg">
  <rect width="1200" height="760" rx="42" fill="#101815"/>
  <rect x="42" y="42" width="1116" height="676" rx="30" fill="#F7F4EA"/>
  <rect x="80" y="86" width="288" height="164" rx="22" fill="#17211C"/>
  <text x="112" y="136" fill="#F7F4EA" font-family="Arial, Helvetica, sans-serif" font-size="30" font-weight="800">Customer ask</text>
  <text x="112" y="178" fill="#B9C5BC" font-family="Arial, Helvetica, sans-serif" font-size="18">Questionnaire, audit request,</text>
  <text x="112" y="206" fill="#B9C5BC" font-family="Arial, Helvetica, sans-serif" font-size="18">control refresh, exception memo</text>
  <rect x="456" y="86" width="288" height="164" rx="22" fill="#DFF2EA" stroke="#94CDBB" stroke-width="2"/>
  <text x="488" y="136" fill="#075B4A" font-family="Arial, Helvetica, sans-serif" font-size="30" font-weight="800">Agent factory</text>
  <text x="488" y="178" fill="#2F5E52" font-family="Arial, Helvetica, sans-serif" font-size="18">Classify, map controls, retrieve</text>
  <text x="488" y="206" fill="#2F5E52" font-family="Arial, Helvetica, sans-serif" font-size="18">evidence, draft with citations</text>
  <rect x="832" y="86" width="288" height="164" rx="22" fill="#FFEAC7" stroke="#E7B763" stroke-width="2"/>
  <text x="864" y="136" fill="#7A4800" font-family="Arial, Helvetica, sans-serif" font-size="30" font-weight="800">Human QA</text>
  <text x="864" y="178" fill="#6E5A32" font-family="Arial, Helvetica, sans-serif" font-size="18">Review exceptions, verify source</text>
  <text x="864" y="206" fill="#6E5A32" font-family="Arial, Helvetica, sans-serif" font-size="18">quality, approve final packet</text>
  <rect x="80" y="350" width="288" height="164" rx="22" fill="#E7EEF9" stroke="#95B5DF" stroke-width="2"/>
  <text x="112" y="400" fill="#214F7B" font-family="Arial, Helvetica, sans-serif" font-size="30" font-weight="800">Evidence graph</text>
  <text x="112" y="442" fill="#3D5E84" font-family="Arial, Helvetica, sans-serif" font-size="18">Drive, Jira, GitHub, Okta,</text>
  <text x="112" y="470" fill="#3D5E84" font-family="Arial, Helvetica, sans-serif" font-size="18">policy docs, prior answers</text>
  <rect x="456" y="350" width="288" height="164" rx="22" fill="#F5DFE2" stroke="#DE9BA5" stroke-width="2"/>
  <text x="488" y="400" fill="#8E3542" font-family="Arial, Helvetica, sans-serif" font-size="30" font-weight="800">Risk router</text>
  <text x="488" y="442" fill="#7A4C53" font-family="Arial, Helvetica, sans-serif" font-size="18">Find gaps, route to legal,</text>
  <text x="488" y="470" fill="#7A4C53" font-family="Arial, Helvetica, sans-serif" font-size="18">security, finance, or sales</text>
  <rect x="832" y="350" width="288" height="164" rx="22" fill="#17211C"/>
  <text x="864" y="400" fill="#F7F4EA" font-family="Arial, Helvetica, sans-serif" font-size="30" font-weight="800">Finished work</text>
  <text x="864" y="442" fill="#B9C5BC" font-family="Arial, Helvetica, sans-serif" font-size="18">Approved packet, memo, answer</text>
  <text x="864" y="470" fill="#B9C5BC" font-family="Arial, Helvetica, sans-serif" font-size="18">bank update, immutable audit trail</text>
  <path d="M374 168H438" stroke="#17211C" stroke-width="7" stroke-linecap="round"/>
  <path d="M438 168L420 150M438 168L420 186" stroke="#17211C" stroke-width="7" stroke-linecap="round" stroke-linejoin="round"/>
  <path d="M750 168H814" stroke="#17211C" stroke-width="7" stroke-linecap="round"/>
  <path d="M814 168L796 150M814 168L796 186" stroke="#17211C" stroke-width="7" stroke-linecap="round" stroke-linejoin="round"/>
  <path d="M224 258V332" stroke="#17211C" stroke-width="7" stroke-linecap="round"/>
  <path d="M224 332L206 314M224 332L242 314" stroke="#17211C" stroke-width="7" stroke-linecap="round" stroke-linejoin="round"/>
  <path d="M374 432H438" stroke="#17211C" stroke-width="7" stroke-linecap="round"/>
  <path d="M438 432L420 414M438 432L420 450" stroke="#17211C" stroke-width="7" stroke-linecap="round" stroke-linejoin="round"/>
  <path d="M750 432H814" stroke="#17211C" stroke-width="7" stroke-linecap="round"/>
  <path d="M814 432L796 414M814 432L796 450" stroke="#17211C" stroke-width="7" stroke-linecap="round" stroke-linejoin="round"/>
  <rect x="80" y="586" width="1040" height="78" rx="20" fill="#17211C"/>
  <text x="112" y="635" fill="#F7F4EA" font-family="Arial, Helvetica, sans-serif" font-size="25" font-weight="800">Outcome sold:</text>
  <text x="300" y="635" fill="#DFF2EA" font-family="Arial, Helvetica, sans-serif" font-size="25">48-hour compliance delivery with source-backed confidence and human sign-off</text>
</svg>
